<svg id="Layer_1" data-name="Layer 1" xmlns="http://www.w3.org/2000/svg" xmlns:xlink="http://www.w3.org/1999/xlink" viewBox="0 0 159.34 32.77"><defs><style>.cls-1,.cls-4{fill:#fff;}.cls-1,.cls-2,.cls-3{fill-rule:evenodd;}.cls-2{fill:url(#linear-gradient);}.cls-3{fill:url(#linear-gradient-2);}.cls-5{fill:#295177;}</style><linearGradient id="linear-gradient" x1="15.39" y1="6.11" x2="15.39" y2="34.83" gradientUnits="userSpaceOnUse"><stop offset="0" stop-color="#dadada"/><stop offset="1" stop-color="#efefef"/></linearGradient><linearGradient id="linear-gradient-2" x1="14.42" y1="27.25" x2="14.42" y2="35.04" gradientUnits="userSpaceOnUse"><stop offset="0" stop-color="#c2c2c2"/><stop offset="1" stop-color="#e0e0e0"/></linearGradient></defs><title>ss-logo</title><path class="cls-1" d="M47.38,23.31c0,2.82-2.58,3.92-5.05,3.92A5.34,5.34,0,0,1,37.51,25l1.79-1.47a4.12,4.12,0,0,0,3,1.47c1.21,0,2.53-.5,2.53-1.57,0-1.42-2-1.69-3-1.92C39.83,21,38,20.37,38,18c0-2.6,2.39-3.84,4.73-3.84A4.81,4.81,0,0,1,47,16.19L45.2,17.58a3.18,3.18,0,0,0-2.55-1.24c-1.11,0-2.08.5-2.08,1.39,0,1.5,2.13,1.71,3.18,1.95C45.8,20.18,47.38,21,47.38,23.31ZM66.19,20c0-1.9-.39-3.63-2.69-3.63s-3.18,1.55-3.18,3.77v6.81H58V20.4c0-2.37-.34-4.05-2.63-4.05-1.71,0-3.24,1.29-3.24,4.1v6.48H49.72V14.45h2.21V16.4H52a4.45,4.45,0,0,1,4-2.27,4,4,0,0,1,3.89,2.32,4.51,4.51,0,0,1,3.95-2.32c3.84,0,4.73,2.74,4.73,5.53v7.26H66.19Zm12.36.94H77.29c-2.24,0-5,.39-5,2.39,0,1.42,1.05,2,2.68,2a3.37,3.37,0,0,0,3.55-3.63Zm.14,4.1h-.06a4.74,4.74,0,0,1-4.37,2.21c-2.32,0-4.32-1.32-4.32-3.74,0-3.21,3.08-4.32,6.87-4.32h1.74v-.52a2.68,2.68,0,0,0-3-2.63A5.18,5.18,0,0,0,72,17.45L70.61,16a7.36,7.36,0,0,1,4.95-1.84c3.68,0,5.21,2,5.21,4.16v6.37a20,20,0,0,0,.11,2.27h-2.1C78.71,26.29,78.69,25.66,78.69,25Zm10.42-8.36c-2.32,0-3.58,1.26-3.58,4v6.26H83.16V14.45h2.37v1.92h.05a4.22,4.22,0,0,1,3.74-2.24,3.4,3.4,0,0,1,1.05.16l-.11,2.55A4.54,4.54,0,0,0,89.11,16.66Zm8.95,10.58c-3.66,0-3.71-2.24-3.71-4.24V16.5H91.61V14.45h2.74V11h2.37v3.5h3.39V16.5H96.71v5.65c0,1.39,0,2.87,1.79,2.87a3.33,3.33,0,0,0,1.69-.37v2.16A5.45,5.45,0,0,1,98.05,27.24Zm9.47,0a5.34,5.34,0,0,1-4.89-2.47l1.39-.95a3.93,3.93,0,0,0,3.52,2c1.37,0,2.79-.84,2.79-2.24,0-3.34-7.21-1-7.21-5.63,0-2.37,2.16-3.5,4.15-3.5a4.45,4.45,0,0,1,4.29,2.29l-1.42.84a3,3,0,0,0-2.87-1.71c-1.13,0-2.58.69-2.58,1.95,0,3.29,7.21.74,7.21,5.66C111.91,26,109.84,27.24,107.52,27.24Zm16-7.47c0-2-.55-3.9-3.05-3.9-2.34,0-4.21,1.64-4.21,5v6.08h-1.58V7h1.58V16.9h.06a4.54,4.54,0,0,1,4.15-2.45c3.79,0,4.63,2.58,4.63,5.23v7.24h-1.58Zm14.26.05a4.09,4.09,0,0,0-4.21-3.95,4.51,4.51,0,0,0-4.42,3.95Zm-4,6a4.88,4.88,0,0,0,4.08-2.16l1.16,1a6,6,0,0,1-5.26,2.6c-3.71,0-6.15-2.66-6.15-6.42a6,6,0,0,1,6.08-6.37,5.53,5.53,0,0,1,5.71,5.68v1.11H129.15A4.54,4.54,0,0,0,133.75,25.82Zm18.13-6a4.09,4.09,0,0,0-4.21-3.95,4.51,4.51,0,0,0-4.42,3.95Zm-4,6a4.88,4.88,0,0,0,4.08-2.16l1.16,1a6,6,0,0,1-5.26,2.6c-3.71,0-6.16-2.66-6.16-6.42a6,6,0,0,1,6.08-6.37,5.53,5.53,0,0,1,5.71,5.68v1.11H143.25A4.54,4.54,0,0,0,147.85,25.82Zm12.24,0a4.66,4.66,0,0,0,1.79-.42l.13,1.42a7,7,0,0,1-2,.42,2.83,2.83,0,0,1-3.13-3.13V16.19h-2.63V14.77h2.63v-3.5h1.57v3.5h3.47v1.42H158.4v7.92A1.56,1.56,0,0,0,160.09,25.82Z" transform="translate(-2.67 -2.39)"/><path class="cls-2" d="M3.61,34.83A11.37,11.37,0,0,0,4,31.78c0-1.86,0-25.68,0-25.68H27.12s.17,19.87-.19,23.5c-.24,2.41-1.25,2.61-2.83.74a15.54,15.54,0,0,1-1.75-3s-2.68,2.67-9.71,5.2A50.27,50.27,0,0,1,3.61,34.83Z" transform="translate(-2.67 -2.39)"/><path class="cls-3" d="M2.92,35a.13.13,0,0,1,0-.25,54.74,54.74,0,0,0,9.69-2.33c6.91-2.49,9.64-5.14,9.67-5.17a.13.13,0,0,1,.09,0h0a.13.13,0,0,1,.09.07,15.49,15.49,0,0,0,1.73,2.94c.69.81,1.23,1.22,1.6,1.22h.13a.13.13,0,0,1,0,.25C22.16,32.55,3.13,35,2.93,35Z" transform="translate(-2.67 -2.39)"/><path class="cls-4" d="M22.35,27.38a15.54,15.54,0,0,0,1.75,3c.65.77,1.24,1.26,1.7,1.26h.13c-3.83.84-23,3.31-23,3.31a54.44,54.44,0,0,0,9.72-2.33c7-2.53,9.71-5.2,9.71-5.2m0-.25a.25.25,0,0,0-.18.07s-2.74,2.67-9.62,5.14a54.59,54.59,0,0,1-9.66,2.32.25.25,0,0,0,0,.5h0c.19,0,19.23-2.48,23-3.32a.25.25,0,0,0-.05-.49H25.8c-.23,0-.68-.2-1.51-1.17a15.37,15.37,0,0,1-1.71-2.91.25.25,0,0,0-.18-.14Z" transform="translate(-2.67 -2.39)"/><path class="cls-5" d="M32.39,2.39S21,9.58,16.06,22.18l-.73-1.46c-1.47-2.92-2.05-3.88-3.13-4a5,5,0,0,0-3.79,2A4.38,4.38,0,0,1,11,20.48c.32.47,4.17,9.25,4.17,9.25S23.23,7.8,33.58,2.89Z" transform="translate(-2.67 -2.39)"/></svg>